<svg xmlns="http://www.w3.org/2000/svg" width="52" height="52" viewBox="0 0 52 52">
  <path id="LINK" d="M46.222,0H5.778A5.778,5.778,0,0,0,0,5.778V46.222A5.778,5.778,0,0,0,5.778,52H46.222A5.778,5.778,0,0,0,52,46.222V5.778A5.778,5.778,0,0,0,46.222,0ZM31.6,34.118,25.22,40.444a9.492,9.492,0,0,1-6.847,2.889,9.38,9.38,0,0,1-6.818-2.889,9.574,9.574,0,0,1,0-13.693l3.9-3.929-.029,1.733a11.641,11.641,0,0,0,.664,4.16l.144.433L15.08,30.333a4.613,4.613,0,0,0,0,6.587,4.709,4.709,0,0,0,6.587,0l6.355-6.327a4.8,4.8,0,0,0,1.387-3.322,4.683,4.683,0,0,0-1.387-3.293,2.513,2.513,0,0,1,0-3.582,2.63,2.63,0,0,1,3.582,0,9.729,9.729,0,0,1,2.831,6.875A9.613,9.613,0,0,1,31.6,34.118Zm8.84-8.869-3.871,3.929V27.444a11.641,11.641,0,0,0-.664-4.16l-.145-.4,1.156-1.213a4.613,4.613,0,0,0,0-6.587,4.736,4.736,0,0,0-6.587,0l-6.355,6.356a4.6,4.6,0,0,0,0,6.587,2.511,2.511,0,0,1,0,3.582,2.485,2.485,0,0,1-1.791.722A2.534,2.534,0,0,1,20.4,31.6a9.712,9.712,0,0,1,0-13.722l6.384-6.327a9.565,9.565,0,0,1,13.664,0,9.322,9.322,0,0,1,2.889,6.818A9.547,9.547,0,0,1,40.444,25.249Z" fill="#0fa958"/>
</svg>
