<svg xmlns="http://www.w3.org/2000/svg" width="23.833" height="23.833" viewBox="0 0 23.833 23.833">
  <g id="akar-icons_image" transform="translate(-1.083 -1.083)">
    <path id="Path_6428" data-name="Path 6428" d="M2.167,6.5A4.333,4.333,0,0,1,6.5,2.167h13A4.333,4.333,0,0,1,23.833,6.5v13A4.333,4.333,0,0,1,19.5,23.833H6.5A4.333,4.333,0,0,1,2.167,19.5Z" fill="none" stroke="#fff" stroke-linecap="round" stroke-linejoin="round" stroke-width="2.167"/>
    <path id="Path_6429" data-name="Path 6429" d="M9.208,11.917A2.708,2.708,0,1,0,6.5,9.208,2.708,2.708,0,0,0,9.208,11.917Z" fill="none" stroke="#fff" stroke-linecap="round" stroke-linejoin="round" stroke-width="2.167"/>
    <path id="Path_6430" data-name="Path 6430" d="M15.736,13.673,6.5,23.833H19.644a4.189,4.189,0,0,0,4.189-4.189V19.5a1.379,1.379,0,0,0-.531-1.073l-4.366-4.761a2.167,2.167,0,0,0-3.2.007Z" fill="none" stroke="#fff" stroke-linecap="round" stroke-linejoin="round" stroke-width="2.167"/>
  </g>
</svg>
