<svg xmlns="http://www.w3.org/2000/svg" width="20.583" height="20.583" viewBox="0 0 20.583 20.583">
  <g id="arcticons_number-9" transform="translate(-2.708 -2.708)">
    <path id="Path_6425" data-name="Path 6425" d="M13.265,20.313a5.1,5.1,0,0,0,4.642-5.173V10.59A4.907,4.907,0,0,0,13,5.715h0a4.907,4.907,0,0,0-4.907,4.907" fill="none" stroke="#fff" stroke-linecap="round" stroke-linejoin="round" stroke-width="0.542"/>
    <path id="Path_6426" data-name="Path 6426" d="M8.959,18.709a4.1,4.1,0,0,0,3.586,1.625h.72M8.093,10.6A4.908,4.908,0,0,0,13,15.5h0a4.907,4.907,0,0,0,4.907-4.908Z" fill="none" stroke="#fff" stroke-linecap="round" stroke-linejoin="round" stroke-width="0.542"/>
    <path id="Path_6427" data-name="Path 6427" d="M21.938,2.979H4.062A1.083,1.083,0,0,0,2.979,4.062V21.938a1.083,1.083,0,0,0,1.083,1.083H21.938a1.083,1.083,0,0,0,1.083-1.083V4.062a1.083,1.083,0,0,0-1.083-1.083Z" fill="none" stroke="#fff" stroke-linecap="round" stroke-linejoin="round" stroke-width="0.542"/>
  </g>
</svg>
