<svg xmlns="http://www.w3.org/2000/svg" width="17.333" height="17.333" viewBox="0 0 17.333 17.333">
  <path id="ci_phone" d="M20.58,21.667A15.949,15.949,0,0,1,4.333,5.42,1.086,1.086,0,0,1,5.417,4.333h2.86a1.085,1.085,0,0,1,1.071.925,13.453,13.453,0,0,0,1.1,3.68l.112.241a.766.766,0,0,1-.249.945,2.094,2.094,0,0,0-.534,2.9,12.818,12.818,0,0,0,3.2,3.2,2.1,2.1,0,0,0,2.9-.534.766.766,0,0,1,.946-.25l.239.111a13.415,13.415,0,0,0,3.68,1.1,1.085,1.085,0,0,1,.925,1.073v2.859a1.083,1.083,0,0,1-1.084,1.083Z" transform="translate(-4.333 -4.333)" fill="#fff"/>
</svg>
