<svg xmlns="http://www.w3.org/2000/svg" width="23.111" height="17.333" viewBox="0 0 23.111 17.333">
  <path id="clarity_email-line" d="M23.111,4.333H2.889A1.444,1.444,0,0,0,1.444,5.778V20.222a1.445,1.445,0,0,0,1.444,1.444H23.111a1.445,1.445,0,0,0,1.444-1.444V5.778a1.445,1.445,0,0,0-1.444-1.444ZM22,20.222H4.088l5.056-5.229-1.04-1-5.214,5.4V6.876l8.977,8.934a1.445,1.445,0,0,0,2.037,0l9.208-9.158V19.291L17.8,13.975l-1.018,1.018ZM3.835,5.778H21.941l-9.057,9.006Z" transform="translate(-1.444 -4.333)" fill="#fff"/>
</svg>
