<svg xmlns="http://www.w3.org/2000/svg" width="21.125" height="19.5" viewBox="0 0 21.125 19.5">
  <path id="codicon_table" d="M21.938,3.25H2.438l-.812.813V21.938l.813.813h19.5l.813-.812V4.063ZM3.25,4.875H21.125V6.5H3.25Zm11.375,6.5H9.75V8.125h4.875Zm0,1.625v3.25H9.75V13ZM3.25,8.125H8.125v3.25H3.25ZM3.25,13H8.125v3.25H3.25Zm0,8.125v-3.25H8.125v3.25Zm6.5,0v-3.25h4.875v3.25Zm11.375,0H16.25v-3.25h4.875Zm0-4.875H16.25V13h4.875ZM16.25,11.375V8.125h4.875v3.25Z" transform="translate(-1.625 -3.25)" fill="#fff"/>
</svg>
