<svg xmlns="http://www.w3.org/2000/svg" width="30.266" height="31.965" viewBox="0 0 30.266 31.965">
  <g id="Layer_x0020_1" transform="translate(0.04 0.001)">
    <g id="_2249250388768" transform="translate(-0.04 -0.001)">
      <path id="Path_7214" data-name="Path 7214" d="M3.227,43.27V39.212a.411.411,0,0,1,.466-.466H7.75a.411.411,0,0,1,.466.466V43.27a.411.411,0,0,1-.466.466H3.692a.411.411,0,0,1-.466-.466ZM16.2,40.608H10.478c-.552,0-.552-.665,0-.665H16.2c.321,0,.356.127.466.333C16.555,40.481,16.52,40.608,16.2,40.608Zm3.192-5.721H10.476c-.552,0-.552-.665,0-.665h8.915A.333.333,0,0,1,19.391,34.887ZM6.419,34.421A2.29,2.29,0,0,1,5.288,33.29c0-.217.159-.266.333-.266.229,0,.6.534.8.665l1.047-.883c.241-.213,1.082-1.065,1.082-.182,0,.213-.84.81-1,.932C7.36,33.7,6.62,34.421,6.419,34.421ZM16.2,32.957H10.476c-.552,0-.552-.665,0-.665H16.2c.321,0,.356.125.466.333C16.553,32.83,16.518,32.957,16.2,32.957ZM7.016,31.826H3.888v3.591H7.546c0-.5-.027-.665.4-.665.339,0,.266.532.266.865a.411.411,0,0,1-.466.466H3.688a.411.411,0,0,1-.466-.466V31.493c0-.215.241-.333.466-.333H7.014c.552,0,.552.665,0,.665ZM1.162,27.968V22.114c0-.321.125-.356.333-.466.206.11.333.145.333.466v5.854c0,.321-.127.356-.333.466C1.289,28.324,1.162,28.289,1.162,27.968Zm18.227-.6H10.474c-.552,0-.552-.665,0-.665h8.915A.333.333,0,0,1,19.389,27.369ZM6.417,26.9a2.29,2.29,0,0,1-1.131-1.131c0-.217.159-.266.333-.266.229,0,.6.534.8.665.145-.127.258-.239.427-.37.207-.162.27-.247.466-.4.329-.256,1.235-1.227,1.235-.294,0,.2-.849.795-1.008.922-.18.147-.936.875-1.121.875ZM16.2,25.44H10.474c-.552,0-.552-.665,0-.665H16.2c.321,0,.356.127.466.333C16.551,25.312,16.516,25.44,16.2,25.44Zm-9.181-1.2H3.886V27.9H7.544c0-.5-.027-.665.4-.665.339,0,.266.532.266.865a.411.411,0,0,1-.466.466H3.687a.411.411,0,0,1-.466-.466V24.042a.411.411,0,0,1,.466-.466H7.012c.552,0,.552.665,0,.665ZM1.16,20.584c0-.251.166-.311.333-.4.462.245.462.554,0,.8C1.326,20.895,1.16,20.834,1.16,20.584Zm-1.2-.932V45.064a1.63,1.63,0,0,0,1.531,1.531H21.517a1.637,1.637,0,0,0,1.18-.617,1.952,1.952,0,0,0,.35-1.446q0-1.829,0-3.658c-.607.405-1.957,2.149-2.5,2.356-.217.082-.319.123-.534.2-.714.249-1.35.474-2.049.744-2.216.857-2.666,1.12-2.073-.409l.438-1.225H11.472c-.8,0-1.4.182-1.4-.4,0-.411.983-.266,1.4-.266h5.122l.474-1.321c.262-.73.143-.663.64-1.157L22.2,34.9c.17-.17.847-.732.847-.947V19.721a1.63,1.63,0,0,0-1.531-1.531H20.65c0,.617.149,1.73-.333,1.73H16.326c-.64,0-.466-.7-.466-1.73H7.078c0,1.029.174,1.73-.466,1.73H2.755c-.64,0-.466-.7-.466-1.73H1.424A1.624,1.624,0,0,0-.04,19.654Z" transform="translate(0.04 -14.63)" fill="#fff" fill-rule="evenodd"/>
      <path id="Path_7215" data-name="Path 7215" d="M92.71,98.358l1,1.029,7.549-7.516-1-1.031Z" transform="translate(-74.557 -73.061)" fill="#fff" fill-rule="evenodd"/>
      <path id="Path_7216" data-name="Path 7216" d="M100.18,105.838l1,1.029,7.549-7.518-1-1.029Z" transform="translate(-80.565 -79.077)" fill="#fff" fill-rule="evenodd"/>
      <path id="Path_7217" data-name="Path 7217" d="M15.292,1.563V4.624H18.75V1.563A1.751,1.751,0,0,0,15.84.45a1.7,1.7,0,0,0-.55,1.114Z" transform="translate(-12.29 0.001)" fill="#fff" fill-rule="evenodd"/>
      <path id="Path_7218" data-name="Path 7218" d="M84.622,1.767V4.762H88.08V1.767a1.736,1.736,0,0,0-3.46,0Z" transform="translate(-68.05 -0.137)" fill="#fff" fill-rule="evenodd"/>
      <path id="Path_7219" data-name="Path 7219" d="M20.05,130.27h3.66v-3.66H20.05Z" transform="translate(-16.118 -101.83)" fill="#fff" fill-rule="evenodd"/>
      <path id="Path_7220" data-name="Path 7220" d="M133.58,81.683l2.445,2.478a9.214,9.214,0,0,0,1.386-1.44,1.76,1.76,0,0,0-2.85-2.051,9.662,9.662,0,0,0-.981,1.014Z" transform="translate(-107.428 -64.354)" fill="#fff" fill-rule="evenodd"/>
      <path id="Path_7221" data-name="Path 7221" d="M87.69,133.989c.194.129,1.127,1.131,1.2,1.131.325,0,1.239-.5,1.664-.532l-2.245-2.278c-.065.221-.219.617-.311.853C87.892,133.433,87.8,133.764,87.69,133.989Z" transform="translate(-70.519 -106.414)" fill="#fff" fill-rule="evenodd"/>
      <path id="Path_7222" data-name="Path 7222" d="M84.29,145.421a5.485,5.485,0,0,0,1.2-.4,2.466,2.466,0,0,0-.8-.732A6.706,6.706,0,0,1,84.29,145.421Z" transform="translate(-67.785 -116.049)" fill="#fff" fill-rule="evenodd"/>
    </g>
  </g>
</svg>
