<svg xmlns="http://www.w3.org/2000/svg" width="20.783" height="20.755" viewBox="0 0 20.783 20.755">
  <path id="fluent_signature-20-filled" d="M15.627,3.6a3.178,3.178,0,1,1,4.5,4.494L18.469,9.75l.112.112a2.6,2.6,0,0,1,0,3.678L16.709,15.41a.65.65,0,0,1-.919-.919l1.872-1.872a1.3,1.3,0,0,0,0-1.838l-.112-.112L8.91,19.31a.65.65,0,0,1-.3.17l-5.2,1.3a.65.65,0,0,1-.773-.836L4.259,15.07a.65.65,0,0,1,.156-.253L15.629,3.6ZM4.248,21.976l-.065-.049,1.752-.438A5.572,5.572,0,0,0,8.45,22.1a4.062,4.062,0,0,0,1.994-.615,15.36,15.36,0,0,0,1.984-1.433l.169-.138a15.175,15.175,0,0,1,1.738-1.29,2.561,2.561,0,0,1,2.12-.39c1.069.355,1.405,1.338,1.717,2.379a1.75,1.75,0,0,0,.338.636.473.473,0,0,0,.339.2,2.3,2.3,0,0,0,1.036-.394c.281-.165.524-.333.764-.5.147-.1.294-.2.446-.3a7.343,7.343,0,0,1,1.027-.56q.2-.087.4-.156l.026-.008.01,0h0l.183.624-.182-.624a.65.65,0,0,1,.367,1.247l-.009,0-.052.018q-.115.042-.226.091a6.022,6.022,0,0,0-.844.46c-.091.06-.209.14-.342.231-.27.186-.6.416-.915.6a3.5,3.5,0,0,1-1.7.575,1.751,1.751,0,0,1-1.31-.637,3.034,3.034,0,0,1-.612-1.126c-.342-1.139-.538-1.4-.884-1.521-.211-.069-.524-.03-1.048.28a14.377,14.377,0,0,0-1.6,1.192l-.152.124a16.391,16.391,0,0,1-2.159,1.553A5.351,5.351,0,0,1,8.45,23.4,7.137,7.137,0,0,1,4.248,21.976Z" transform="translate(-2.601 -2.645)" fill="#fff"/>
</svg>
