<svg xmlns="http://www.w3.org/2000/svg" width="38.046" height="38.039" viewBox="0 0 38.046 38.039">
  <g id="Calque_187_-_copie" data-name="Calque 187 - copie" transform="translate(0 -0.001)">
    <g id="Calque_4_-_copie" data-name="Calque 4 - copie" transform="translate(0 0.001)">
      <path id="Path_6470" data-name="Path 6470" d="M38.017,17.93a1.636,1.636,0,0,0-1.352-1.636c-.125-.027-.256-.033-.382-.055l-3.3-.583c-.409-1.091-.812-2.127-1.232-3.206.185-.256.349-.5.545-.731.474-.6.938-1.216,1.445-1.783a1.9,1.9,0,0,0-.033-3.01c-.273-.273-.507-.578-.763-.862-1.091-1.189-1.609-1.271-2.972-.431-.905.545-1.8,1.123-2.754,1.723a16.789,16.789,0,0,0-4.749-2.181c-.087-.453-.169-.867-.245-1.281-.136-.8-.262-1.592-.4-2.388A1.636,1.636,0,0,0,20.263.061a12.329,12.329,0,0,0-2.416,0,1.636,1.636,0,0,0-1.554,1.445,13.038,13.038,0,0,1-.245,1.38A11.1,11.1,0,0,1,15.6,5.121l-4.03,1.685c-.245-.164-.545-.344-.807-.545-.7-.491-1.374-1.009-2.083-1.472a1.636,1.636,0,0,0-2.312.169c-.5.5-.987.954-1.461,1.456a1.636,1.636,0,0,0-.153,2.312c.447.676.943,1.314,1.4,1.985.234.344.583.627.605.954-.589,1.407-1.123,2.694-1.669,4.008l-.616.142c-1.009.169-2.018.322-3.021.518A1.6,1.6,0,0,0,.033,17.9a22.411,22.411,0,0,0,0,2.421A1.57,1.57,0,0,0,1.243,21.8c.284.082.583.093.872.164a19.9,19.9,0,0,1,3.043.616l1.249,3.272L5.371,27.156C4.946,27.7,4.5,28.2,4.1,28.748a1.636,1.636,0,0,0,0,2.121,19.04,19.04,0,0,0,1.532,1.718,1.576,1.576,0,0,0,2.088.289c.333-.18.654-.393.976-.594l2.241-1.39c.818.42,1.554.845,2.328,1.183s1.57.605,2.356.9c.071.349.136.638.185.927.164.922.294,1.849.491,2.765a1.51,1.51,0,0,0,1.587,1.358c.807.038,1.636,0,2.421,0a1.467,1.467,0,0,0,1.4-1.091c.115-.36.147-.747.234-1.118a20.575,20.575,0,0,1,.545-2.792L26.5,31.387c.36.245.747.5,1.123.769.627.442,1.238.911,1.881,1.325a1.614,1.614,0,0,0,2.3-.153,20,20,0,0,0,1.461-1.483,1.69,1.69,0,0,0,.18-2.317c-.518-.78-1.091-1.521-1.636-2.29-.191-.273-.338-.573-.458-.763l1.679-4.024,1.6-.289c.633-.109,1.265-.185,1.892-.311a1.636,1.636,0,0,0,1.516-1.75C38.05,19.375,38.056,18.649,38.017,17.93ZM19.085,26.2A7.089,7.089,0,0,1,12,19.042a7.138,7.138,0,1,1,14.232.044A7.056,7.056,0,0,1,19.085,26.2Z" transform="translate(0 -0.001)" fill="#037ae0" fill-rule="evenodd"/>
    </g>
  </g>
</svg>
