<svg xmlns="http://www.w3.org/2000/svg" width="24.371" height="18.952" viewBox="0 0 24.371 18.952">
  <path id="iwwa_number-asc" d="M13.792,5.205h1.719a.487.487,0,0,0,0-.975H13.792a.487.487,0,0,0,0,.975Zm0,4.169H17.4a.487.487,0,0,0,0-.975H13.792a.487.487,0,0,0,0,.975Zm0,8.338h8.748a.488.488,0,1,0,0-.975H13.792a.488.488,0,0,0,0,.975ZM24.7,20.907H13.792a.488.488,0,0,0,0,.975H24.7a.488.488,0,1,0,0-.975ZM13.792,13.543h6.148a.488.488,0,1,0,0-.975H13.792a.488.488,0,0,0,0,.975ZM11.354,15.9,7,21.145V4.507a.487.487,0,1,0-.975,0V21.123L1.679,15.9a.488.488,0,1,0-.75.623L6.153,22.8a.487.487,0,0,0,.375.176h0A.49.49,0,0,0,6.9,22.8l5.2-6.277a.488.488,0,0,0-.751-.623Z" transform="translate(-0.816 -4.02)" fill="#fff"/>
</svg>
