<svg xmlns="http://www.w3.org/2000/svg" width="180.313" height="154.811" viewBox="0 0 180.313 154.811">
  <g id="Layer_2" data-name="Layer 2" transform="translate(0 0)">
    <g id="Layer_1" data-name="Layer 1" transform="translate(0 0)">
      <g id="Layer_1-2" data-name="Layer_1">
        <g id="_2423094043136" data-name=" 2423094043136">
          <path id="Path_6414" data-name="Path 6414" d="M12.916,122.2c-.318-7.53-.045-15.657-.045-23.25,0-11.181-.256-79.167.063-81.328.529-3.628,3.219-4.584,7.018-4.55H159.927c9.276-.034,7.3,5.375,7.314,16.1q0,23.318.04,46.636c0,4.089.273,43.639-.051,46.579l-36.4-39.021c-2.224-2.451-6.193-8.724-12.08-4.988-3.509,2.224-7.251,6.563-10.539,8.429C101.865,90.4,97.173,82.29,91.753,76.756c-1.49-1.519-3.162-3.344-4.641-5.016-3.02-3.412-6.08-6.512-9.1-9.9s-8.332-5.869-13.177-1.683c-1.45,1.251-7.092,8.281-8.724,10.237-2.963,3.583-5.665,6.785-8.656,10.368L21.663,111.926c-1.575,1.956-7.649,9.56-8.747,10.266ZM9.1.461C3.412,1.786.034,5.716,0,12.393v125.5c0,7.831.245,12.074,5.687,15.242,4.135,2.406,13.792,1.49,19.405,1.49h125.5c4.658,0,16.908.569,20.7-.262,5.369-1.172,8.861-5.574,8.9-11.943.262-41.517,0-83.854,0-125.5,0-7.746-.267-12.131-5.687-15.242C170.323-.745,160.74.171,155.1.171H29.6C25.024.171,12.632-.364,9.1.461Z" transform="translate(0 0)" fill="#bababa" fill-rule="evenodd"/>
          <path id="Path_6415" data-name="Path 6415" d="M220.449,45.814c-6.114,1.064-9.668,3.458-12.449,6.961a19.075,19.075,0,0,0-4.089,14.787c1.439,9.668,10.237,18.1,21.754,16.436,9.668-1.4,18.131-10.277,16.431-21.748-1.382-9.321-10.237-18.387-21.646-16.408Z" transform="translate(-87.855 -19.652)" fill="#bababa" fill-rule="evenodd"/>
        </g>
      </g>
    </g>
  </g>
</svg>
