<svg xmlns="http://www.w3.org/2000/svg" width="20.026" height="20.026" viewBox="0 0 20.026 20.026">
  <path id="mdi_link-variant" d="M11.473,14.528a1.054,1.054,0,0,1,0,1.538,1.092,1.092,0,0,1-1.538,0,5.42,5.42,0,0,1,0-7.659l3.835-3.835a5.416,5.416,0,0,1,7.659,7.659l-1.614,1.614a7.485,7.485,0,0,0-.433-2.622l.509-.52A3.248,3.248,0,1,0,15.3,6.11L11.473,9.934a3.231,3.231,0,0,0,0,4.593Zm3.055-4.593a1.092,1.092,0,0,1,1.538,0,5.42,5.42,0,0,1,0,7.659l-3.835,3.835a5.416,5.416,0,0,1-7.659-7.659l1.614-1.614a7.585,7.585,0,0,0,.433,2.633L6.11,15.3A3.248,3.248,0,1,0,10.7,19.89l3.824-3.824a3.23,3.23,0,0,0,0-4.593,1.054,1.054,0,0,1,0-1.538Z" transform="translate(-2.987 -2.987)" fill="#0d1d29"/>
</svg>
