<svg xmlns="http://www.w3.org/2000/svg" width="23.833" height="21.667" viewBox="0 0 23.833 21.667">
  <path id="mdi_form-dropdown" d="M18.417,5.417h3.25L20.042,7.583ZM3.25,2.167h19.5a2.167,2.167,0,0,1,2.167,2.167V8.667a2.159,2.159,0,0,1-2.167,2.167H17.333V21.667a2.159,2.159,0,0,1-2.167,2.167H3.25a2.167,2.167,0,0,1-2.167-2.167V4.333A2.173,2.173,0,0,1,3.25,2.167Zm0,2.167V8.667H15.167V4.333Zm19.5,4.333V4.333H17.333V8.667Zm-19.5,13H15.167V10.833H3.25ZM5.417,13H13v2.167H5.417Zm0,4.333H13V19.5H5.417Z" transform="translate(-1.083 -2.167)" fill="#fff"/>
</svg>
