<svg id="Layer_2" data-name="Layer 2" xmlns="http://www.w3.org/2000/svg" width="28.984" height="35.415" viewBox="0 0 28.984 35.415">
  <g id="Ñëîé_1" data-name="Ñëîé 1">
    <rect id="Rectangle_3249" data-name="Rectangle 3249" width="9.19" height="1.4" rx="0.7" transform="translate(9.299 12.246)" fill="#fff"/>
    <rect id="Rectangle_3250" data-name="Rectangle 3250" width="9.19" height="1.4" rx="0.7" transform="translate(9.299 16.491)" fill="#fff"/>
    <rect id="Rectangle_3251" data-name="Rectangle 3251" width="7.511" height="1.4" rx="0.7" transform="translate(9.299 20.735)" fill="#fff"/>
    <rect id="Rectangle_3252" data-name="Rectangle 3252" width="6.018" height="1.4" rx="0.7" transform="translate(9.299 24.981)" fill="#fff"/>
    <path id="Path_7223" data-name="Path 7223" d="M44.477,101.981a.459.459,0,0,0-.65,0l-1.809,1.811-.727-.727a.459.459,0,0,0-.65.65l1.238,1.238h0l.139.139,2.457-2.458a.457.457,0,0,0,0-.652Z" transform="translate(-36.122 -90.821)" fill="#fff"/>
    <path id="Path_7224" data-name="Path 7224" d="M44.477,143.951a.459.459,0,0,0-.65,0l-1.809,1.811-.727-.727a.459.459,0,1,0-.65.65l1.238,1.237h0l.139.137,2.457-2.457a.459.459,0,0,0,0-.651Z" transform="translate(-36.122 -128.247)" fill="#fff"/>
    <path id="Path_7225" data-name="Path 7225" d="M44.477,183.163a.457.457,0,0,0-.65,0l-1.809,1.81-.727-.727a.459.459,0,1,0-.65.65l1.238,1.238h0l.14.139,2.457-2.458a.457.457,0,0,0,0-.651Z" transform="translate(-36.122 -163.214)" fill="#fff"/>
    <path id="Path_7226" data-name="Path 7226" d="M43.013,222.791a.459.459,0,0,0-.65,0l-1.814,1.81-.727-.727a.459.459,0,1,0-.65.65l1.238,1.238h0l.137.139,2.458-2.459a.459.459,0,0,0,.006-.651Z" transform="translate(-34.811 -198.552)" fill="#fff"/>
    <path id="Path_7227" data-name="Path 7227" d="M69.267,2.706h-.7a.993.993,0,0,1-.985-1.014V1.68a1.775,1.775,0,0,0-3.545,0v.012a.993.993,0,0,1-.985,1.015h-.694A1.463,1.463,0,0,0,60.9,4.168v.123a1.463,1.463,0,0,0,1.463,1.463h6.9a1.463,1.463,0,0,0,1.461-1.463V4.168a1.463,1.463,0,0,0-1.461-1.461Zm-3.452-.373a.685.685,0,1,1,.684-.684.685.685,0,0,1-.684.684Z" transform="translate(-54.307 0)" fill="#fff"/>
    <path id="Path_7228" data-name="Path 7228" d="M14.49,60.75H2.426V39.789H20.588V51.708a8.343,8.343,0,0,1,2.177-.288h.249V36.481a2.207,2.207,0,0,0-2.207-2.208H17.416v.217a2.66,2.66,0,0,1-2.659,2.659h-6.5A2.66,2.66,0,0,1,5.6,34.487V34.27H2.207A2.207,2.207,0,0,0,0,36.481V61.088A2.207,2.207,0,0,0,2.207,63.3H15.221A8.26,8.26,0,0,1,14.49,60.75Z" transform="translate(0 -30.56)" fill="#fff"/>
    <path id="Path_7229" data-name="Path 7229" d="M159.059,212.24a6.219,6.219,0,1,0,6.219,6.219,6.219,6.219,0,0,0-6.219-6.219Zm3.758,4.94L158,222l-.271-.271h0L155.3,219.3a.9.9,0,0,1,1.273-1.273L158,219.458l3.551-3.551a.9.9,0,0,1,1.269,1.272Z" transform="translate(-136.294 -189.264)" fill="#fff"/>
  </g>
</svg>
