<svg xmlns="http://www.w3.org/2000/svg" width="17.875" height="19.5" viewBox="0 0 17.875 19.5">
  <path id="Path_6435" data-name="Path 6435" d="M21.188,11.25h4.875a.813.813,0,0,1,0,1.625h-.9L23.942,23.886A4.062,4.062,0,0,1,19.9,27.5H15.971a4.062,4.062,0,0,1-4.038-3.614L10.71,12.875h-.9a.813.813,0,0,1,0-1.625h4.875a3.25,3.25,0,1,1,6.5,0Zm-3.25-1.625a1.625,1.625,0,0,0-1.625,1.625h3.25a1.625,1.625,0,0,0-1.625-1.625Zm-2.437,6.5v6.5a.813.813,0,0,0,1.625,0v-6.5a.813.813,0,0,0-1.625,0Zm4.063-.812a.813.813,0,0,0-.812.813v6.5a.813.813,0,0,0,1.625,0v-6.5a.813.813,0,0,0-.812-.812Z" transform="translate(-9 -8)" fill="#fff"/>
</svg>
