<svg id="Settings_icn" xmlns="http://www.w3.org/2000/svg" width="52" height="52" viewBox="0 0 52 52">
  <path id="Path_6416" data-name="Path 6416" d="M26,31.778A5.778,5.778,0,1,0,20.222,26,5.778,5.778,0,0,0,26,31.778Z" fill="#f24e1e"/>
  <path id="Path_6417" data-name="Path 6417" d="M46.222,0H5.778A5.778,5.778,0,0,0,0,5.778V46.222A5.778,5.778,0,0,0,5.778,52H46.222A5.778,5.778,0,0,0,52,46.222V5.778A5.778,5.778,0,0,0,46.222,0ZM36.833,26a12.527,12.527,0,0,1-.173,1.82l2.427,2.109a1.453,1.453,0,0,1,.289,1.82l-1.7,2.947a1.411,1.411,0,0,1-1.7.636L32.9,34.291a10.533,10.533,0,0,1-3.12,1.82l-.636,3.149a1.453,1.453,0,0,1-1.416,1.156H24.324a1.453,1.453,0,0,1-1.416-1.156l-.636-3.149a10.535,10.535,0,0,1-3.12-1.82l-3.062,1.04a1.433,1.433,0,0,1-1.7-.636l-1.7-2.947a1.453,1.453,0,0,1,.289-1.82L15.4,27.82A7.66,7.66,0,0,1,15.167,26a12.527,12.527,0,0,1,.173-1.82l-2.427-2.109a1.453,1.453,0,0,1-.289-1.82l1.7-2.947a1.411,1.411,0,0,1,1.7-.635l3.062,1.04a10.533,10.533,0,0,1,3.12-1.82l.636-3.149A1.505,1.505,0,0,1,24.3,11.556H27.7a1.453,1.453,0,0,1,1.416,1.155l.636,3.149a10.535,10.535,0,0,1,3.12,1.82l3.062-1.04a1.432,1.432,0,0,1,1.7.636l1.7,2.947a1.453,1.453,0,0,1-.289,1.82l-2.427,2.109A10.056,10.056,0,0,1,36.833,26Z" fill="#f24e1e"/>
</svg>
