<svg xmlns="http://www.w3.org/2000/svg" width="26" height="21.127" viewBox="0 0 26 21.127">
  <g id="short_text" data-name="short text" transform="translate(0 -0.438)">
    <path id="Path_6420" data-name="Path 6420" d="M8.125,1.25A.813.813,0,0,1,8.938.438a6.757,6.757,0,0,1,3.347.92A7.163,7.163,0,0,1,13,1.822a7.151,7.151,0,0,1,.715-.465,6.768,6.768,0,0,1,3.347-.92.813.813,0,0,1,0,1.625,5.146,5.146,0,0,0-2.542.705,5.674,5.674,0,0,0-.708.478v6.942h.813a.813.813,0,0,1,0,1.625h-.812v6.942a5.509,5.509,0,0,0,.708.478,5.146,5.146,0,0,0,2.542.705.813.813,0,0,1,0,1.625,6.767,6.767,0,0,1-3.347-.92A7.406,7.406,0,0,1,13,20.181a7.423,7.423,0,0,1-.715.463,6.768,6.768,0,0,1-3.347.92.813.813,0,0,1,0-1.625,5.146,5.146,0,0,0,2.542-.705,5.626,5.626,0,0,0,.708-.478V11.813h-.812a.813.813,0,0,1,0-1.625h.813V3.246a5.674,5.674,0,0,0-.708-.478,5.145,5.145,0,0,0-2.542-.705.813.813,0,0,1-.812-.812Z" fill="#fff" fill-rule="evenodd"/>
    <path id="Path_6421" data-name="Path 6421" d="M16.25,6.125h6.5A1.625,1.625,0,0,1,24.375,7.75v6.5a1.625,1.625,0,0,1-1.625,1.625h-6.5V17.5h6.5A3.25,3.25,0,0,0,26,14.25V7.75A3.25,3.25,0,0,0,22.75,4.5h-6.5Zm-6.5,0V4.5H3.25A3.25,3.25,0,0,0,0,7.75v6.5A3.25,3.25,0,0,0,3.25,17.5h6.5V15.875H3.25A1.625,1.625,0,0,1,1.625,14.25V7.75A1.625,1.625,0,0,1,3.25,6.125Z" fill="#fff"/>
  </g>
</svg>
