<svg xmlns="http://www.w3.org/2000/svg" width="26" height="25.994" viewBox="0 0 26 25.994">
  <path id="simple-line-icons_calender" d="M24.375,2.435H17.869V.815a.813.813,0,1,0-1.625,0V2.434h-6.5V.815a.813.813,0,1,0-1.625,0V2.434H1.625A1.625,1.625,0,0,0,0,4.059V24.372A1.625,1.625,0,0,0,1.625,26h22.75A1.625,1.625,0,0,0,26,24.372V4.059A1.625,1.625,0,0,0,24.375,2.435Zm0,21.937H1.625V4.059H8.119v.819a.813.813,0,0,0,1.625,0V4.06h6.5v.819a.813.813,0,0,0,1.625,0V4.06h6.506ZM18.688,13h1.625a.813.813,0,0,0,.813-.812V10.56a.813.813,0,0,0-.812-.812H18.688a.813.813,0,0,0-.812.812v1.625A.813.813,0,0,0,18.688,13Zm0,6.5h1.625a.813.813,0,0,0,.813-.812V17.059a.813.813,0,0,0-.812-.812H18.688a.813.813,0,0,0-.812.813v1.625A.812.812,0,0,0,18.688,19.5Zm-4.875-3.25H12.188a.813.813,0,0,0-.812.813v1.625a.813.813,0,0,0,.813.813h1.625a.813.813,0,0,0,.813-.812V17.059A.813.813,0,0,0,13.813,16.247Zm0-6.5H12.188a.813.813,0,0,0-.812.812v1.625a.813.813,0,0,0,.813.813h1.625a.813.813,0,0,0,.813-.812V10.56A.813.813,0,0,0,13.813,9.747Zm-6.5,0H5.688a.813.813,0,0,0-.812.812v1.625A.813.813,0,0,0,5.688,13H7.313a.813.813,0,0,0,.813-.812V10.56A.813.813,0,0,0,7.313,9.747Zm0,6.5H5.688a.813.813,0,0,0-.812.813v1.625a.813.813,0,0,0,.813.813H7.313a.813.813,0,0,0,.813-.812V17.059A.813.813,0,0,0,7.313,16.247Z" transform="translate(0 -0.003)" fill="#fff"/>
</svg>
