<svg xmlns="http://www.w3.org/2000/svg" width="32.311" height="40.73" viewBox="0 0 32.311 40.73">
  <g id="Group_6288" data-name="Group 6288" transform="translate(-64.999 -418.458)">
    <path id="Path_1163" data-name="Path 1163" d="M64.476,0h1.2a5.029,5.029,0,0,1,3.872,3.091,10.476,10.476,0,0,1,.31,3.433c-.032,3.183.021,6.366-.017,9.548a4.763,4.763,0,0,1-9.487.517c-.087-1.891-.1-3.791-.021-5.681a1.536,1.536,0,0,1,2.035-1.352,1.443,1.443,0,0,1,1.069,1.153c.166,1.9-.076,3.8.11,5.7a1.6,1.6,0,0,0,2.138,1.064,1.437,1.437,0,0,0,.885-1.006,12.873,12.873,0,0,0,.112-2.3c-.034-2.918,0-5.837-.008-8.754-.034-.652.012-1.524-.647-1.9a1.555,1.555,0,0,0-1.9,0c-.518.285-.48.973-.613,1.465a1.606,1.606,0,0,1-1.2,1.324c-.817.1-1.64-.049-2.458.021A3.209,3.209,0,0,0,57.4,8.162a5.3,5.3,0,0,0-.286,2.019q.017,10.342.006,20.685c.01,1.314-.06,2.632.051,3.944a3.109,3.109,0,0,0,3.055,2.715c6.362.064,12.727-.007,19.091.033a3.549,3.549,0,0,0,2.547-.724,2.968,2.968,0,0,0,1.117-2.041,2.8,2.8,0,0,1,.4-1.371,1.561,1.561,0,0,1,2.525,0,2.492,2.492,0,0,1,.235,1.97,6.4,6.4,0,0,1-4.711,5.13q-.438.122-.885.211H59.627a7.362,7.362,0,0,1-2.667-.95,6.4,6.4,0,0,1-3.024-5.571c.01-8.222-.009-16.444.009-24.665a6.282,6.282,0,0,1,2.546-5.16,6.94,6.94,0,0,1,4.1-1.336,6.3,6.3,0,0,1,1.365-1.874A5.323,5.323,0,0,1,64.476,0Z" transform="translate(11.066 418.458)" fill="#037ae0"/>
    <path id="Path_1164" data-name="Path 1164" d="M294.276,38.911c1.844-.093,3.692-.028,5.537-.039a6.423,6.423,0,0,1,5.711,3.429,7.041,7.041,0,0,1,.733,3.491c0,5.172-.01,10.342,0,15.514a3.322,3.322,0,0,1-.249,1.667,1.607,1.607,0,0,1-1.779.758,1.669,1.669,0,0,1-1.09-1.064,8.323,8.323,0,0,1-.078-1.282c0-5.436.022-10.875,0-16.311a3.174,3.174,0,0,0-2.727-2.975c-1.972-.146-3.953.045-5.926-.076a1.541,1.541,0,0,1-1.356-2.036A1.45,1.45,0,0,1,294.276,38.911Z" transform="translate(-208.953 382.689)" fill="#037ae0"/>
    <path id="Path_1165" data-name="Path 1165" d="M134.322,300.895c5.157-.1,10.32,0,15.48-.05a4.2,4.2,0,0,1,2.108.284,1.608,1.608,0,0,1,.036,2.585,2.134,2.134,0,0,1-1.426.323c-5.172.006-10.344-.009-15.516.007a1.809,1.809,0,0,1-1.663-.648A1.575,1.575,0,0,1,134.322,300.895Z" transform="translate(-61.727 141.548)" fill="#037ae0"/>
    <path id="Path_1166" data-name="Path 1166" d="M134.322,381.895c3.567-.106,7.138,0,10.707-.05a4.2,4.2,0,0,1,2.108.284,1.608,1.608,0,0,1,.036,2.585,2.134,2.134,0,0,1-1.426.323c-3.581.006-7.162-.008-10.743.007a1.809,1.809,0,0,1-1.663-.648A1.575,1.575,0,0,1,134.322,381.895Z" transform="translate(-61.727 66.991)" fill="#037ae0"/>
  </g>
</svg>
