<svg xmlns="http://www.w3.org/2000/svg" width="22.369" height="19.854" viewBox="0 0 22.369 19.854">
  <g id="ant-design_field-time-outlined" transform="translate(-1.828 -3.074)">
    <path id="Path_6431" data-name="Path 6431" d="M23.994,10.461h-6.5a.2.2,0,0,0-.2.2v1.219a.2.2,0,0,0,.2.2h6.5a.2.2,0,0,0,.2-.2V10.664A.2.2,0,0,0,23.994,10.461Zm-3.4,3.453h-3.1a.2.2,0,0,0-.2.2v1.219a.2.2,0,0,0,.2.2h3.1a.2.2,0,0,0,.2-.2V14.117A.2.2,0,0,0,20.592,13.914ZM12.119,8.188h-1.1a.284.284,0,0,0-.284.284v6.3a.28.28,0,0,0,.117.229l3.781,2.757a.283.283,0,0,0,.4-.061l.653-.891v0a.284.284,0,0,0-.064-.4L12.4,14.079V8.473A.282.282,0,0,0,12.119,8.188Z" fill="#fff"/>
    <path id="Path_6432" data-name="Path 6432" d="M20.434,17.111H18.967a.417.417,0,0,0-.353.2,8.159,8.159,0,0,1-1.13,1.414,8.1,8.1,0,1,1,0-11.441,8.154,8.154,0,0,1,1.13,1.414.417.417,0,0,0,.353.2h1.468a.232.232,0,0,0,.208-.338,9.928,9.928,0,1,0,0,8.9A.233.233,0,0,0,20.434,17.111Z" fill="#fff"/>
  </g>
</svg>
