<svg xmlns="http://www.w3.org/2000/svg" width="19.5" height="13.813" viewBox="0 0 19.5 13.813">
  <path id="carbon_text-font" d="M20.313,9.75H16.25v1.625h4.063a.813.813,0,0,1,.813.813v1.625h-3.25a2.44,2.44,0,0,0-2.437,2.438v.813A2.44,2.44,0,0,0,17.875,19.5H22.75V12.188A2.44,2.44,0,0,0,20.313,9.75Zm-2.437,8.125a.813.813,0,0,1-.812-.812V16.25a.813.813,0,0,1,.813-.812h3.25v2.438ZM13,19.5h1.625L9.75,5.688H8.125L3.25,19.5H4.875l1.376-4.062h5.373ZM6.8,13.813,8.83,7.824h.216l2.028,5.989Z" transform="translate(-3.25 -5.688)" fill="#fff"/>
</svg>
