<svg xmlns="http://www.w3.org/2000/svg" width="23.833" height="21.667" viewBox="0 0 23.833 21.667">
  <path id="material-symbols_insert-page-break" d="M6.5,23.833a2.173,2.173,0,0,1-2.167-2.167v-3.25H21.667v3.25A2.171,2.171,0,0,1,19.5,23.833ZM14.083,9.75H19.5L14.083,4.333ZM9.75,16.25V14.083h6.5V16.25Zm8.667,0V14.083h6.5V16.25Zm-17.333,0V14.083h6.5V16.25Zm3.25-4.333V4.333A2.087,2.087,0,0,1,4.97,2.8,2.085,2.085,0,0,1,6.5,2.167h8.667l6.5,6.5v3.25Z" transform="translate(-1.083 -2.167)" fill="#fff"/>
</svg>
