<svg xmlns="http://www.w3.org/2000/svg" width="21.517" height="22.718" viewBox="0 0 21.517 22.718">
  <path id="Path_6434" data-name="Path 6434" d="M17.763,15.266a2.818,2.818,0,1,0,1.088.215A2.817,2.817,0,0,0,17.763,15.266Zm10.469,5.979-1.66-1.419a9.055,9.055,0,0,0,0-2.93l1.66-1.419a.813.813,0,0,0,.236-.894l-.023-.066a11.237,11.237,0,0,0-2.021-3.5l-.046-.053a.815.815,0,0,0-.891-.241l-2.062.734A8.867,8.867,0,0,0,20.9,10l-.4-2.156a.814.814,0,0,0-.655-.653l-.069-.013a11.442,11.442,0,0,0-4.032,0l-.069.013a.814.814,0,0,0-.655.653l-.4,2.166a8.973,8.973,0,0,0-2.511,1.455l-2.077-.739a.812.812,0,0,0-.891.241l-.046.053a11.323,11.323,0,0,0-2.021,3.5l-.023.066a.816.816,0,0,0,.236.894l1.681,1.434a8.927,8.927,0,0,0-.117,1.447,8.835,8.835,0,0,0,.117,1.447L7.289,21.24a.813.813,0,0,0-.236.894l.023.066A11.265,11.265,0,0,0,9.1,25.7l.046.053a.815.815,0,0,0,.891.241l2.077-.739a8.793,8.793,0,0,0,2.511,1.455l.4,2.166a.814.814,0,0,0,.655.652l.069.013a11.385,11.385,0,0,0,4.032,0l.069-.013a.814.814,0,0,0,.655-.652l.4-2.156a8.925,8.925,0,0,0,2.529-1.46l2.062.734a.812.812,0,0,0,.891-.241l.046-.053a11.324,11.324,0,0,0,2.021-3.5l.023-.066A.819.819,0,0,0,28.231,21.245ZM17.763,22.571a4.464,4.464,0,1,1,4.464-4.464A4.463,4.463,0,0,1,17.763,22.571Z" transform="translate(-7 -7)" fill="#fff"/>
</svg>
