<svg xmlns="http://www.w3.org/2000/svg" width="35" height="33" viewBox="0 0 35 33">
  <g id="Polygon_7" data-name="Polygon 7" fill="#fff">
    <path d="M 26.93121910095215 31.60765266418457 C 26.84963989257812 31.60766220092773 26.76907920837402 31.58627128601074 26.69178009033203 31.54408264160156 L 18.21862983703613 26.91939163208008 C 17.99887084960938 26.79944229125977 17.75037002563477 26.73604202270508 17.5 26.73604202270508 C 17.24962997436523 26.73604202270508 17.00112915039062 26.79944229125977 16.7813606262207 26.91939163208008 L 8.308230400085449 31.54408264160156 C 8.230939865112305 31.58626174926758 8.150360107421875 31.60765266418457 8.068719863891602 31.60765266418457 C 7.921770095825195 31.60765266418457 7.77603006362915 31.53737258911133 7.67887020111084 31.41966247558594 C 7.612269878387451 31.3389720916748 7.540669918060303 31.20248222351074 7.577750205993652 31.01042175292969 L 9.391160011291504 21.61739158630371 C 9.489870071411133 21.10609245300293 9.321120262145996 20.58914184570312 8.939780235290527 20.23455238342285 L 1.910210013389587 13.69829177856445 C 1.693809986114502 13.4970817565918 1.751940011978149 13.24949169158936 1.774909973144531 13.17840194702148 C 1.797880053520203 13.10731220245361 1.895619988441467 12.8725118637085 2.188859939575195 12.83596229553223 L 11.76696968078613 11.64230251312256 C 12.27871036529541 11.57854175567627 12.71609973907471 11.26224231719971 12.93696975708008 10.79620170593262 L 17.04817008972168 2.120972156524658 C 17.17387962341309 1.855712175369263 17.42579078674316 1.835102200508118 17.5 1.835102200508118 C 17.57422065734863 1.835102200508118 17.82612037658691 1.855712175369263 17.95182991027832 2.120972156524658 L 22.06303024291992 10.79619216918945 C 22.28388977050781 11.26222229003906 22.72126960754395 11.57852172851562 23.23303031921387 11.64230251312256 L 32.81114959716797 12.83596229553223 C 33.10438919067383 12.87250232696533 33.20212173461914 13.10730171203613 33.22510147094727 13.17839241027832 C 33.24806976318359 13.24948215484619 33.30619812011719 13.49707221984863 33.08979034423828 13.69829177856445 L 26.06023025512695 20.23454284667969 C 25.67886924743652 20.58915138244629 25.51012992858887 21.10610198974609 25.60885047912598 21.61740303039551 L 27.42226028442383 31.01042175292969 C 27.45932006835938 31.20241165161133 27.38772964477539 31.33889198303223 27.32114028930664 31.4195728302002 C 27.22396087646484 31.53732299804688 27.07818984985352 31.60763168334961 26.93121910095215 31.60765266418457 Z" stroke="none"/>
    <path d="M 17.5 2.335102081298828 L 13.3887996673584 11.01033210754395 C 13.09432029724121 11.6317024230957 12.51114082336426 12.05343246459961 11.82880973815918 12.13846206665039 L 2.250694274902344 13.33212089538574 C 2.250694274902344 13.33212471008301 2.250694274902344 13.33212852478027 2.250679016113281 13.33212280273438 L 9.280250549316406 19.86838150024414 C 9.78870964050293 20.34117126464844 10.01370048522949 21.03043174743652 9.882099151611328 21.71217346191406 L 8.068679809570312 31.10519218444824 L 16.54180908203125 26.48051261901855 C 16.83484077453613 26.32057189941406 17.16617965698242 26.23603248596191 17.5 26.23603248596191 C 17.83382034301758 26.23603248596191 18.16515922546387 26.32057189941406 18.45817947387695 26.48050308227539 L 26.93129920959473 31.10518074035645 C 26.93130493164062 31.10517692565918 26.93130874633789 31.10517311096191 26.93132019042969 31.10520172119141 L 25.11791038513184 21.71218109130859 C 24.98628997802734 21.03045272827148 25.21128082275391 20.34118270874023 25.71976089477539 19.86837196350098 L 32.74931335449219 13.33212852478027 C 32.74931335449219 13.33212661743164 32.74930953979492 13.33212471008301 32.74930953979492 13.33212280273438 L 23.17119979858398 12.13846206665039 C 22.48886108398438 12.05343246459961 21.90567970275879 11.6317024230957 21.6112003326416 11.01032257080078 L 17.5 2.335102081298828 M 17.5 1.335098266601562 C 17.86151313781738 1.335098266601562 18.22302436828613 1.525680541992188 18.40365982055664 1.906852722167969 L 22.51486015319824 10.58207130432129 C 22.66131019592285 10.89109230041504 22.95550918579102 11.10385131835938 23.29486083984375 11.14614295959473 L 32.87297821044922 12.33980178833008 C 33.71572113037109 12.44482231140137 34.05220031738281 13.48617172241211 33.43025970458984 14.06446266174316 L 26.40069961547852 20.60071182250977 C 26.14813041687012 20.83556175231934 26.03440093994141 21.18398284912109 26.09978103637695 21.52261352539062 L 27.91318893432617 30.91564178466797 C 28.07351112365723 31.74608421325684 27.19461822509766 32.38816833496094 26.45223045349121 31.98296165466309 L 17.97908973693848 27.35827255249023 C 17.68049049377441 27.19529151916504 17.31950950622559 27.19529151916504 17.02091026306152 27.35827255249023 L 8.547769546508789 31.98296165466309 C 7.80537223815918 32.38817596435547 6.926492691040039 31.74608039855957 7.086809158325195 30.91564178466797 L 8.900230407714844 21.52261352539062 C 8.965599060058594 21.18398284912109 8.851869583129883 20.83556175231934 8.599300384521484 20.60071182250977 L 1.569740295410156 14.06446266174316 C 0.9477996826171875 13.48617172241211 1.284290313720703 12.44483184814453 2.127021789550781 12.33980178833008 L 11.70513916015625 11.14614295959473 C 12.04449081420898 11.10385131835938 12.33868980407715 10.89109230041504 12.48513984680176 10.58207130432129 L 16.59634017944336 1.906852722167969 C 16.77697563171387 1.525680541992188 17.13848686218262 1.335098266601562 17.5 1.335098266601562 Z" stroke="none" fill="#bababa"/>
  </g>
</svg>
