<svg xmlns="http://www.w3.org/2000/svg" width="34.308" height="36.755" viewBox="0 0 34.308 36.755">
  <g id="_000000fe" data-name="#000000fe" transform="translate(-16.995)">
    <path id="Path_1170" data-name="Path 1170" d="M32.174,0H36.13a3.339,3.339,0,0,1,2.26,1.65c.824,1.574-.152,3.511.762,5.051a3.1,3.1,0,0,0,3.537,1.408c1.283-.475,2.3-1.52,3.661-1.809a2.987,2.987,0,0,1,2.937,1.466c.543.9,1.057,1.811,1.6,2.708a2.873,2.873,0,0,1-.14,3.182c-.859,1.129-2.324,1.466-3.355,2.386a3.133,3.133,0,0,0-.378,4.05c.866,1.251,2.561,1.492,3.51,2.659a3.634,3.634,0,0,1,.2,3.95c-.545.911-1.039,1.858-1.658,2.721a2.913,2.913,0,0,1-2.775,1.151c-1.35-.263-2.34-1.311-3.606-1.776a3.094,3.094,0,0,0-3.675,1.691c-.548,1.324-.039,2.812-.426,4.17a3.244,3.244,0,0,1-2.525,2.1H32.243A3.261,3.261,0,0,1,29.7,34.606a18.2,18.2,0,0,1-.164-3.161,3.034,3.034,0,0,0-3.065-2.921,5.549,5.549,0,0,0-2.512.911,5.505,5.505,0,0,1-2.32.9,3.077,3.077,0,0,1-2.616-1.493c-.553-.954-1.142-1.888-1.668-2.857a2.787,2.787,0,0,1,.162-2.995,6.563,6.563,0,0,1,2.278-1.67,4.167,4.167,0,0,0,1.5-1.155,3.007,3.007,0,0,0-.576-4.14c-.764-.582-1.672-.94-2.438-1.52A3.2,3.2,0,0,1,17.19,11.23a7.371,7.371,0,0,1,1.059-2.154A7.216,7.216,0,0,1,19.8,6.9,2.938,2.938,0,0,1,22.622,6.5c1,.395,1.906.988,2.892,1.413A3.088,3.088,0,0,0,29.2,6.463c.6-1.069.249-2.357.383-3.517A3.152,3.152,0,0,1,32.174,0m1.147,12.314a6.124,6.124,0,1,0,5.958,2.734A6.108,6.108,0,0,0,33.322,12.314Z" fill="rgba(9,40,90,0.68)"/>
  </g>
</svg>
