<svg id="Signature" xmlns="http://www.w3.org/2000/svg" width="215.618" height="120.313" viewBox="0 0 215.618 120.313">
  <path id="Path_6405" data-name="Path 6405" d="M295.122,74.805c1.22.937,2.45,1.874,3.676,2.823s2.45,1.869,3.676,2.823a1.248,1.248,0,0,1,.232,1.722c-3.455,4.681-6.662,9.548-10.321,14.059s-7.5,8.893-11.095,13.46a1.282,1.282,0,0,1-1.666.271,30.883,30.883,0,0,1-6.95-5.313,1.27,1.27,0,0,1-.181-1.694c3.472-4.664,6.708-9.491,10.1-14.222s7.2-9.124,10.79-13.7a1.242,1.242,0,0,1,1.722-.231Z" transform="translate(-118.535 -32.46)" fill="#bababa" fill-rule="evenodd"/>
  <path id="Path_6406" data-name="Path 6406" d="M349.717.83c2.823,1.694,1.451,6.589-1.886,12.67a.982.982,0,0,1,.068,1.265l-.152.192a.982.982,0,0,1-.954.367c-5.906,10.039-16.289,22.584-22.251,29.41a.977.977,0,0,1,0,1.2l-.152.2a.977.977,0,0,1-1.3.226c-.514.565-.982,1.129-1.383,1.541a1.056,1.056,0,0,1-1.411.2l-1.733-1.332-2.467-1.886-2.473-1.886-1.745-1.332a1.05,1.05,0,0,1-.181-1.412c.322-.508.7-1.1,1.129-1.75a.988.988,0,0,1-.056-1.253l.147-.192a.977.977,0,0,1,1.078-.333C318.974,29.2,328.307,15.9,336.42,7.549a.982.982,0,0,1-.164-1.355L336.4,6a.977.977,0,0,1,1.366-.186l.22.169C342.987,1.163,347.351-1.44,349.717.83Z" transform="translate(-135.623 0)" fill="#bababa" fill-rule="evenodd"/>
  <path id="Path_6407" data-name="Path 6407" d="M314.522,64.949l11,8.4a.181.181,0,0,1,.04.254l-.847,1.129a.181.181,0,0,1-.254.034l-11-8.418a.186.186,0,0,1-.034-.26l.841-1.129a.186.186,0,0,1,.26-.034Z" transform="translate(-136.444 -28.249)" fill="#fff" fill-rule="evenodd"/>
  <path id="Path_6408" data-name="Path 6408" d="M345.118,10.18a3.06,3.06,0,0,0-2.027,1.383,13.076,13.076,0,0,1-1.66,2.964c-1.011,1.1-2.885,2.258-4.935,4.172a59.441,59.441,0,0,0-6.256,7.34c-1.982,2.665-3.721,5.251-5.042,7.227a29.637,29.637,0,0,0-2.7,4.517,3.1,3.1,0,0,0-.192,2.6,1.248,1.248,0,0,0,1.632.48,3.286,3.286,0,0,0,1.694-1.914,8.4,8.4,0,0,0,.237-3.094,132.606,132.606,0,0,1,7.842-11.292,49.814,49.814,0,0,1,6.606-6.719,22.953,22.953,0,0,0,2.129-1.649c.519-.565,1.361-1.75,2.117-2.738a8.051,8.051,0,0,0,1.53-2.36c.113-.582-.316-.943-.965-.869Z" transform="translate(-140.239 -4.432)" fill="#fff" fill-rule="evenodd"/>
  <path id="Path_6409" data-name="Path 6409" d="M364.007,16l5.974,4.517a.757.757,0,0,1,.141,1.056l-.147.2a.762.762,0,0,1-1.062.141l-5.974-4.562Z" transform="translate(-158.021 -6.966)" fill="#fff" fill-rule="evenodd"/>
  <path id="Path_6410" data-name="Path 6410" d="M258.679,143.095l-.04-.034a17.109,17.109,0,0,1-1.428-1.129,11.167,11.167,0,0,1-1.773-1.779c-.35-.519-.277-.841,0-1.045a5.713,5.713,0,0,0,1.344-.83,20.516,20.516,0,0,0,2.349-3.173c.373-.565,2.823-4.726,4.8-7.34.282-.373.452-.491.565-.35a22.534,22.534,0,0,0,8.221,6.278c.164.068.1.26-.186.632s-.638.711-1.745,1.959-2.823,3.167-4.06,4.6a21.068,21.068,0,0,0-2.445,3.1,5.851,5.851,0,0,0-.446,1.513c-.124.322-.418.48-1.011.277a11.551,11.551,0,0,1-2.258-1.293c-.768-.531-1.411-1.033-1.75-1.293a1.343,1.343,0,0,1-.124-.1Z" transform="translate(-111.113 -55.45)" fill="#bababa" fill-rule="evenodd"/>
  <path id="Path_6411" data-name="Path 6411" d="M247.237,150.544l6,4.579a32.088,32.088,0,0,0-2.179,2.823,15.888,15.888,0,0,0-1.694,3.455c-.491,1.389-.937,3.088-1.2,4.133a3.793,3.793,0,0,1-.762,1.886,5.928,5.928,0,0,1-2.095,1.338,19.663,19.663,0,0,1-3.467.869,15.38,15.38,0,0,0-4.28,1.231,8.644,8.644,0,0,0-2.445,2.213,2.038,2.038,0,0,1-.4.4.215.215,0,0,1-.237,0s-.1-.164-.062-.237a2.389,2.389,0,0,1,.282-.491,8.5,8.5,0,0,0,1.491-2.936,15.273,15.273,0,0,0,.062-4.455,19.552,19.552,0,0,1-.079-3.574,5.9,5.9,0,0,1,.74-2.371c.327-.519.678-.706,1.615-1.236s2.462-1.406,3.664-2.258a15.543,15.543,0,0,0,2.891-2.546,32.411,32.411,0,0,0,2.162-2.857Z" transform="translate(-102.059 -65.531)" fill="#bababa" fill-rule="evenodd"/>
  <path id="Path_6412" data-name="Path 6412" d="M249.582,153.14a26.343,26.343,0,0,1-1.626,2.078,17.09,17.09,0,0,1-3.066,2.71c-1.2.841-2.473,1.581-3.749,2.3a3.676,3.676,0,0,0-1.259.892,4.98,4.98,0,0,0-.565,1.942,18.323,18.323,0,0,0,.085,3.388c.062.824.514,1.959.514,2.823a38.2,38.2,0,0,0,3.89-6.211c1.931-3.952,5.573-.915,2.021,1.694a36.791,36.791,0,0,0-4.89,5.319c.813-.22,2.027-.085,2.823-.243a17.5,17.5,0,0,0,3.28-.813,4.861,4.861,0,0,0,1.694-1.078,3.618,3.618,0,0,0,.531-1.451c.361-1.417.74-2.823,1.231-4.218A17.093,17.093,0,0,1,252.3,158.6a24.992,24.992,0,0,1,1.575-2.112l-4.314-3.3Z" transform="translate(-104.179 -66.676)" fill="#fff" fill-rule="evenodd"/>
  <path id="Path_6413" data-name="Path 6413" d="M0,192.189c.779-.254,104.819-34.944,103.137-25.464-.915,5.161-42.842,15.6-47.145,20.795h0c10.931,3.45,64.461-22.528,55.1-9.135-7.233,10.355,17.317-4.652,16.938.869-.079,1.1,1.632.869,4.229.644-2.608.243-4.359.48-4.331-.644.136-5.336-24.5,9.892-17.537-.949,7.029-10.942-19.377,6.211-49.894,9.886-28.654,3.478,37.9-19.761,39.336-21C110.1,158.465.09,192.138,0,192.189Z" transform="translate(0 -71.876)" fill="#bababa" fill-rule="evenodd"/>
</svg>
