<svg xmlns="http://www.w3.org/2000/svg" width="31.711" height="31.71" viewBox="0 0 31.711 31.71">
  <g id="_000000fc" data-name="#000000fc" transform="translate(-114.805 -114.834)">
    <path id="Path_3423" data-name="Path 3423" d="M116.042,114.916c3.537-.166,7.084,0,10.624-.077.8.02,1.8-.146,2.39.545.445.356.22,1.007.31,1.488q-.008,7.024,0,14.05a1.408,1.408,0,0,1-1.579,1.321q-5.614.061-11.232,0a1.451,1.451,0,0,1-1.607-1.063c-.159-1.505-.063-3.022-.08-4.533.033-3.37-.047-6.74.022-10.108a1.438,1.438,0,0,1,1.149-1.622m1.752,2.857q0,5.784,0,11.569,4.38,0,8.76,0,0-5.784,0-11.569Q122.174,117.77,117.795,117.773Z" transform="translate(-0.046)" fill="#037ae0"/>
    <path id="Path_3424" data-name="Path 3424" d="M268.984,114.925c3.537-.161,7.084,0,10.624-.075.744.028,1.672-.143,2.261.449.494.459.4,1.2.436,1.808.011,2.435,0,4.871.007,7.307a2.024,2.024,0,0,1-.538,1.713c-.355.445-1.011.22-1.488.31-3.559,0-7.119-.008-10.678.006-.719.075-1.685-.181-1.746-1.041-.115-2.988-.03-5.981-.045-8.97a1.322,1.322,0,0,1,1.168-1.507m1.64,2.86q-.005,2.92,0,5.84,4.379,0,8.758,0,.005-2.92,0-5.84Q275,117.782,270.624,117.784Z" transform="translate(-135.804 -0.011)" fill="#037ae0"/>
    <path id="Path_3425" data-name="Path 3425" d="M269,241.928c2.039-.161,4.087-.031,6.13-.064,2.043.03,4.092-.092,6.131.062a1.32,1.32,0,0,1,1.106,1.106c.148,1.852.038,3.713.063,5.57-.027,2.994.051,5.991-.02,8.985a1.438,1.438,0,0,1-1.149,1.622c-3.537.166-7.084,0-10.624.078-.8-.021-1.8.146-2.39-.545-.444-.355-.222-1.011-.31-1.488q.008-7.024,0-14.05A1.34,1.34,0,0,1,269,241.928m1.751,2.855q0,5.784,0,11.569,4.38,0,8.76,0,0-5.784,0-11.569Q275.128,244.779,270.749,244.783Z" transform="translate(-135.929 -112.745)" fill="#037ae0"/>
    <path id="Path_3426" data-name="Path 3426" d="M115.768,293.877c3.914-.146,7.837-.011,11.755-.067.718-.076,1.685.181,1.747,1.041.113,2.988.029,5.981.045,8.97.194.955-.814,1.669-1.684,1.548-3.745.052-7.491.013-11.236.021a1.452,1.452,0,0,1-1.505-1.17c-.154-2.79-.028-5.588-.071-8.381a1.788,1.788,0,0,1,.949-1.961m1.98,2.751q-.005,2.92,0,5.84,4.379,0,8.758,0,.005-2.92,0-5.84Q122.128,296.626,117.748,296.627Z" transform="translate(0 -158.862)" fill="#037ae0"/>
  </g>
</svg>
